<?xml version="1.0" encoding="UTF-8"?>
<svg xmlns="http://www.w3.org/2000/svg" xmlns:xlink="http://www.w3.org/1999/xlink" viewBox="0 0 1203.16 1200">
  <defs>
    <style>
      .cls-1 {
        fill: url(#linear-gradient-15);
      }

      .cls-2 {
        fill: url(#linear-gradient-28);
      }

      .cls-3 {
        fill: url(#linear-gradient-2);
      }

      .cls-3, .cls-4, .cls-5, .cls-6, .cls-7, .cls-8, .cls-9, .cls-10, .cls-11, .cls-12, .cls-13, .cls-14, .cls-15, .cls-16, .cls-17, .cls-18 {
        mix-blend-mode: multiply;
      }

      .cls-4 {
        fill: url(#linear-gradient-13);
      }

      .cls-19 {
        fill: url(#linear-gradient-25);
      }

      .cls-20 {
        fill: url(#linear-gradient-12);
      }

      .cls-21 {
        fill: #fff;
      }

      .cls-22 {
        fill: url(#linear-gradient-26);
      }

      .cls-5 {
        fill: url(#linear-gradient-24);
      }

      .cls-23 {
        opacity: .55;
      }

      .cls-24 {
        fill: none;
      }

      .cls-25 {
        fill: url(#linear-gradient-30);
      }

      .cls-26 {
        fill: url(#linear-gradient-3);
      }

      .cls-27 {
        clip-path: url(#clippath-1);
      }

      .cls-28 {
        fill: url(#linear-gradient-5);
      }

      .cls-6 {
        fill: url(#linear-gradient-4);
      }

      .cls-29 {
        isolation: isolate;
      }

      .cls-7 {
        fill: url(#linear-gradient-22);
      }

      .cls-8 {
        fill: url(#linear-gradient-21);
      }

      .cls-9 {
        fill: url(#linear-gradient-8);
      }

      .cls-30 {
        fill: url(#linear-gradient-33);
      }

      .cls-10 {
        fill: url(#linear-gradient-29);
      }

      .cls-11 {
        fill: url(#linear-gradient-10);
      }

      .cls-31 {
        fill: url(#linear-gradient-20);
      }

      .cls-32 {
        fill: url(#linear-gradient-7);
      }

      .cls-12 {
        fill: url(#linear-gradient-27);
      }

      .cls-33 {
        fill: url(#linear-gradient-9);
      }

      .cls-34 {
        fill: url(#linear-gradient-11);
      }

      .cls-13 {
        fill: url(#linear-gradient-17);
      }

      .cls-14 {
        fill: url(#linear-gradient);
      }

      .cls-35 {
        fill: url(#linear-gradient-16);
      }

      .cls-15 {
        fill: url(#linear-gradient-19);
      }

      .cls-36 {
        fill: url(#linear-gradient-23);
      }

      .cls-37 {
        fill: url(#linear-gradient-31);
      }

      .cls-16 {
        fill: url(#linear-gradient-14);
      }

      .cls-17 {
        fill: url(#linear-gradient-32);
      }

      .cls-38 {
        clip-path: url(#clippath);
      }

      .cls-39 {
        opacity: .5;
      }

      .cls-40 {
        fill: #e8e8e8;
      }

      .cls-18 {
        fill: url(#linear-gradient-6);
      }

      .cls-41 {
        fill: url(#linear-gradient-18);
      }
    </style>
    <clipPath id="clippath">
      <rect class="cls-24" x=".95" width="1201.26" height="1200"/>
    </clipPath>
    <clipPath id="clippath-1">
      <rect class="cls-24" x="-299.37" y="0" width="1800" height="1200" transform="translate(1200.6316 -.6316) rotate(90)"/>
    </clipPath>
    <linearGradient id="linear-gradient" x1="8699.65" y1="5527.14" x2="8679.34" y2="5970.98" gradientTransform="translate(9766.7976 6122.7504) rotate(-180)" gradientUnits="userSpaceOnUse">
      <stop offset="0" stop-color="#404040"/>
      <stop offset="0" stop-color="#444"/>
      <stop offset=".05" stop-color="#696969"/>
      <stop offset=".11" stop-color="#898989"/>
      <stop offset=".16" stop-color="#a4a4a4"/>
      <stop offset=".23" stop-color="#bababa"/>
      <stop offset=".31" stop-color="#cbcbcb"/>
      <stop offset=".4" stop-color="#d7d7d7"/>
      <stop offset=".54" stop-color="#dedede"/>
      <stop offset=".91" stop-color="#e0e0e0"/>
    </linearGradient>
    <linearGradient id="linear-gradient-2" x1="8699.65" y1="5893.17" x2="8679.34" y2="6337.01" gradientTransform="translate(9766.7976 6122.7504) rotate(-180)" gradientUnits="userSpaceOnUse">
      <stop offset="0" stop-color="#404040"/>
      <stop offset=".02" stop-color="#565656"/>
      <stop offset=".07" stop-color="#7b7b7b"/>
      <stop offset=".12" stop-color="#9b9b9b"/>
      <stop offset=".18" stop-color="#b6b6b6"/>
      <stop offset=".24" stop-color="#ccc"/>
      <stop offset=".32" stop-color="#ddd"/>
      <stop offset=".41" stop-color="#e9e9e9"/>
      <stop offset=".54" stop-color="#f0f0f0"/>
      <stop offset=".91" stop-color="#f2f2f2"/>
    </linearGradient>
    <linearGradient id="linear-gradient-3" x1="8699.65" y1="5710.16" x2="8679.34" y2="6153.99" xlink:href="#linear-gradient-2"/>
    <linearGradient id="linear-gradient-4" x1="8537.44" y1="5399.24" x2="8689.99" y2="5593.19" gradientTransform="translate(9766.7976 6122.7504) rotate(-180)" gradientUnits="userSpaceOnUse">
      <stop offset="0" stop-color="#404040"/>
      <stop offset="0" stop-color="#444"/>
      <stop offset=".06" stop-color="#6a6a6a"/>
      <stop offset=".12" stop-color="#8c8c8c"/>
      <stop offset=".19" stop-color="#a8a8a8"/>
      <stop offset=".26" stop-color="silver"/>
      <stop offset=".35" stop-color="#d2d2d2"/>
      <stop offset=".45" stop-color="#dedede"/>
      <stop offset=".59" stop-color="#e5e5e5"/>
      <stop offset=".9" stop-color="#e8e8e8"/>
    </linearGradient>
    <linearGradient id="linear-gradient-5" x1="9652.22" y1="5893.17" x2="9631.92" y2="6337.01" xlink:href="#linear-gradient-2"/>
    <linearGradient id="linear-gradient-6" x1="9017.17" y1="5710.16" x2="8996.87" y2="6153.99" xlink:href="#linear-gradient-2"/>
    <linearGradient id="linear-gradient-7" x1="9017.17" y1="5893.17" x2="8996.87" y2="6337.01" xlink:href="#linear-gradient-2"/>
    <linearGradient id="linear-gradient-8" x1="9334.7" y1="5893.17" x2="9314.39" y2="6337.01" xlink:href="#linear-gradient"/>
    <linearGradient id="linear-gradient-9" x1="9334.7" y1="5710.16" x2="9314.39" y2="6153.99" xlink:href="#linear-gradient-2"/>
    <linearGradient id="linear-gradient-10" x1="9846.42" y1="5746.27" x2="9512.98" y2="6088.43" gradientTransform="translate(9766.7976 6122.7504) rotate(-180)" gradientUnits="userSpaceOnUse">
      <stop offset="0" stop-color="#404040"/>
      <stop offset=".05" stop-color="#5e5e5e"/>
      <stop offset=".11" stop-color="gray"/>
      <stop offset=".19" stop-color="#9d9d9d"/>
      <stop offset=".27" stop-color="#b5b5b5"/>
      <stop offset=".36" stop-color="#c7c7c7"/>
      <stop offset=".47" stop-color="#d4d4d4"/>
      <stop offset=".61" stop-color="#dbdbdb"/>
      <stop offset=".92" stop-color="#dedede"/>
    </linearGradient>
    <linearGradient id="linear-gradient-11" x1="9846.42" y1="5563.25" x2="9512.98" y2="5905.42" xlink:href="#linear-gradient-10"/>
    <linearGradient id="linear-gradient-12" x1="9528.9" y1="5563.25" x2="9195.45" y2="5905.42" xlink:href="#linear-gradient-10"/>
    <linearGradient id="linear-gradient-13" x1="9017.17" y1="5527.14" x2="8996.87" y2="5970.98" xlink:href="#linear-gradient-2"/>
    <linearGradient id="linear-gradient-14" x1="9334.7" y1="5344.13" x2="9314.39" y2="5787.96" xlink:href="#linear-gradient-2"/>
    <linearGradient id="linear-gradient-15" x1="9652.22" y1="5344.13" x2="9631.92" y2="5787.96" xlink:href="#linear-gradient-2"/>
    <linearGradient id="linear-gradient-16" x1="9211.37" y1="5380.23" x2="8877.93" y2="5722.4" xlink:href="#linear-gradient-10"/>
    <linearGradient id="linear-gradient-17" x1="8699.65" y1="4613.03" x2="8679.34" y2="5056.86" xlink:href="#linear-gradient"/>
    <linearGradient id="linear-gradient-18" x1="8699.65" y1="5162.08" x2="8679.34" y2="5605.91" xlink:href="#linear-gradient-2"/>
    <linearGradient id="linear-gradient-19" x1="8699.65" y1="4979.06" x2="8679.34" y2="5422.89" xlink:href="#linear-gradient-2"/>
    <linearGradient id="linear-gradient-20" x1="8699.65" y1="4796.04" x2="8679.34" y2="5239.88" xlink:href="#linear-gradient-2"/>
    <linearGradient id="linear-gradient-21" x1="9017.17" y1="5162.08" x2="8996.87" y2="5605.91" xlink:href="#linear-gradient-2"/>
    <linearGradient id="linear-gradient-22" x1="9652.22" y1="5162.08" x2="9631.92" y2="5605.91" xlink:href="#linear-gradient-2"/>
    <linearGradient id="linear-gradient-23" x1="9652.22" y1="4979.06" x2="9631.92" y2="5422.89" xlink:href="#linear-gradient-2"/>
    <linearGradient id="linear-gradient-24" x1="9017.17" y1="4796.04" x2="8996.87" y2="5239.88" xlink:href="#linear-gradient-2"/>
    <linearGradient id="linear-gradient-25" x1="9017.17" y1="4979.06" x2="8996.87" y2="5422.89" xlink:href="#linear-gradient-2"/>
    <linearGradient id="linear-gradient-26" x1="9172.49" y1="5217.2" x2="9325.04" y2="5411.15" xlink:href="#linear-gradient-4"/>
    <linearGradient id="linear-gradient-27" x1="9334.7" y1="4979.06" x2="9314.39" y2="5422.89" xlink:href="#linear-gradient"/>
    <linearGradient id="linear-gradient-28" x1="9334.7" y1="4796.04" x2="9314.39" y2="5239.88" xlink:href="#linear-gradient-2"/>
    <linearGradient id="linear-gradient-29" x1="9846.42" y1="4832.15" x2="9512.98" y2="5174.32" xlink:href="#linear-gradient-10"/>
    <linearGradient id="linear-gradient-30" x1="9846.42" y1="4649.14" x2="9512.98" y2="4991.3" xlink:href="#linear-gradient-10"/>
    <linearGradient id="linear-gradient-31" x1="9528.9" y1="4649.14" x2="9195.45" y2="4991.3" xlink:href="#linear-gradient-10"/>
    <linearGradient id="linear-gradient-32" x1="9017.17" y1="4613.03" x2="8996.87" y2="5056.86" xlink:href="#linear-gradient-2"/>
    <linearGradient id="linear-gradient-33" x1="144" y1="1129.23" x2="1066.23" y2="62.59" gradientUnits="userSpaceOnUse">
      <stop offset="0" stop-color="#e8e8e8" stop-opacity="0"/>
      <stop offset="0" stop-color="#e8e8e8" stop-opacity=".01"/>
      <stop offset=".06" stop-color="#e9e9e9" stop-opacity=".24"/>
      <stop offset=".12" stop-color="#ebebeb" stop-opacity=".44"/>
      <stop offset=".18" stop-color="#ececec" stop-opacity=".61"/>
      <stop offset=".24" stop-color="#eee" stop-opacity=".75"/>
      <stop offset=".31" stop-color="#eee" stop-opacity=".86"/>
      <stop offset=".37" stop-color="#efefef" stop-opacity=".94"/>
      <stop offset=".44" stop-color="#efefef" stop-opacity=".99"/>
      <stop offset=".51" stop-color="#f0f0f0"/>
      <stop offset=".57" stop-color="#efefef" stop-opacity=".98"/>
      <stop offset=".63" stop-color="#efefef" stop-opacity=".93"/>
      <stop offset=".7" stop-color="#eee" stop-opacity=".84"/>
      <stop offset=".76" stop-color="#ededed" stop-opacity=".72"/>
      <stop offset=".83" stop-color="#ececec" stop-opacity=".56"/>
      <stop offset=".89" stop-color="#eaeaea" stop-opacity=".36"/>
      <stop offset=".96" stop-color="#e9e9e9" stop-opacity=".14"/>
      <stop offset="1" stop-color="#e8e8e8" stop-opacity="0"/>
    </linearGradient>
  </defs>
  <g class="cls-29">
    <g id="Layer_2" data-name="Layer 2">
      <g id="Layer_1-2" data-name="Layer 1">
        <rect class="cls-40" x="1.58" y=".32" width="1200" height="1199.37" transform="translate(1201.5789 -1.5789) rotate(90)"/>
        <g class="cls-38">
          <g class="cls-23">
            <g class="cls-27">
              <g>
                <polygon class="cls-14" points="919.69 257.12 919.69 440.13 1078.45 531.64 1237.21 440.13 1237.21 257.12 1078.45 165.61 919.69 257.12"/>
                <polygon class="cls-3" points="919.69 -108.91 919.69 74.1 1078.45 165.61 1237.21 74.1 1237.21 -108.91 1078.45 -200.42 919.69 -108.91"/>
                <polygon class="cls-26" points="919.69 74.1 919.69 257.12 1078.45 348.63 1237.21 257.12 1237.21 74.1 1078.45 -17.41 919.69 74.1"/>
                <polygon class="cls-6" points="919.69 440.13 919.69 623.15 1078.45 714.66 1237.21 623.15 1237.21 440.13 1078.45 348.63 919.69 440.13"/>
                <polygon class="cls-28" points="-32.89 -108.91 -32.89 74.1 125.87 165.61 284.64 74.1 284.64 -108.91 125.87 -200.42 -32.89 -108.91"/>
                <polygon class="cls-18" points="602.16 74.1 602.16 257.12 760.92 348.63 919.69 257.12 919.69 74.1 760.92 -17.41 602.16 74.1"/>
                <polygon class="cls-32" points="602.16 -108.91 602.16 74.1 760.92 165.61 919.69 74.1 919.69 -108.91 760.92 -200.42 602.16 -108.91"/>
                <polygon class="cls-9" points="284.64 -108.91 284.64 74.1 443.4 165.61 602.16 74.1 602.16 -108.91 443.4 -200.42 284.64 -108.91"/>
                <polygon class="cls-33" points="284.64 74.1 284.64 257.12 443.4 348.63 602.16 257.12 602.16 74.1 443.4 -17.41 284.64 74.1"/>
                <polygon class="cls-11" points="-32.89 74.1 -32.89 257.12 125.87 348.63 284.64 257.12 284.64 74.1 125.87 -17.41 -32.89 74.1"/>
                <polygon class="cls-34" points="-32.89 257.12 -32.89 440.13 125.87 531.64 284.64 440.13 284.64 257.12 125.87 165.61 -32.89 257.12"/>
                <polygon class="cls-20" points="284.64 257.12 284.64 440.13 443.4 531.64 602.16 440.13 602.16 257.12 443.4 165.61 284.64 257.12"/>
                <polygon class="cls-4" points="602.16 257.12 602.16 440.13 760.92 531.64 919.69 440.13 919.69 257.12 760.92 165.61 602.16 257.12"/>
                <polygon class="cls-16" points="284.64 440.13 284.64 623.15 443.4 714.66 602.16 623.15 602.16 440.13 443.4 348.63 284.64 440.13"/>
                <polygon class="cls-1" points="-32.89 440.13 -32.89 623.15 125.87 714.66 284.64 623.15 284.64 440.13 125.87 348.63 -32.89 440.13"/>
                <polygon class="cls-35" points="602.16 440.13 602.16 623.15 760.92 714.66 919.69 623.15 919.69 440.13 760.92 348.63 602.16 440.13"/>
                <polygon class="cls-13" points="919.69 1171.23 919.69 1354.25 1078.45 1445.75 1237.21 1354.25 1237.21 1171.23 1078.45 1079.72 919.69 1171.23"/>
                <polygon class="cls-41" points="919.69 622.18 919.69 805.2 1078.45 896.71 1237.21 805.2 1237.21 622.18 1078.45 530.67 919.69 622.18"/>
                <polygon class="cls-15" points="919.69 805.2 919.69 988.21 1078.45 1079.72 1237.21 988.21 1237.21 805.2 1078.45 713.69 919.69 805.2"/>
                <polygon class="cls-31" points="919.69 988.21 919.69 1171.23 1078.45 1262.74 1237.21 1171.23 1237.21 988.21 1078.45 896.71 919.69 988.21"/>
                <polygon class="cls-8" points="602.16 622.18 602.16 805.2 760.92 896.71 919.69 805.2 919.69 622.18 760.92 530.67 602.16 622.18"/>
                <polygon class="cls-7" points="-32.89 622.18 -32.89 805.2 125.87 896.71 284.64 805.2 284.64 622.18 125.87 530.67 -32.89 622.18"/>
                <polygon class="cls-36" points="-32.89 805.2 -32.89 988.21 125.87 1079.72 284.64 988.21 284.64 805.2 125.87 713.69 -32.89 805.2"/>
                <polygon class="cls-5" points="602.16 988.21 602.16 1171.23 760.92 1262.74 919.69 1171.23 919.69 988.21 760.92 896.71 602.16 988.21"/>
                <polygon class="cls-19" points="602.16 805.2 602.16 988.21 760.92 1079.72 919.69 988.21 919.69 805.2 760.92 713.69 602.16 805.2"/>
                <polygon class="cls-22" points="284.64 622.18 284.64 805.2 443.4 896.71 602.16 805.2 602.16 622.18 443.4 530.67 284.64 622.18"/>
                <polygon class="cls-12" points="284.64 805.2 284.64 988.21 443.4 1079.72 602.16 988.21 602.16 805.2 443.4 713.69 284.64 805.2"/>
                <polygon class="cls-2" points="284.64 988.21 284.64 1171.23 443.4 1262.74 602.16 1171.23 602.16 988.21 443.4 896.71 284.64 988.21"/>
                <polygon class="cls-10" points="-32.89 988.21 -32.89 1171.23 125.87 1262.74 284.64 1171.23 284.64 988.21 125.87 896.71 -32.89 988.21"/>
                <polygon class="cls-25" points="-32.89 1171.23 -32.89 1354.25 125.87 1445.75 284.64 1354.25 284.64 1171.23 125.87 1079.72 -32.89 1171.23"/>
                <polygon class="cls-37" points="284.64 1171.23 284.64 1354.25 443.4 1445.75 602.16 1354.25 602.16 1171.23 443.4 1079.72 284.64 1171.23"/>
                <polygon class="cls-17" points="602.16 1171.23 602.16 1354.25 760.92 1445.75 919.69 1354.25 919.69 1171.23 760.92 1079.72 602.16 1171.23"/>
              </g>
            </g>
          </g>
        </g>
        <rect class="cls-30" y="0" width="1203.16" height="1200"/>
        <rect class="cls-39" x=".95" width="1201.26" height="1200"/>
        <g>
          <path class="cls-21" d="M749.74,718.51h-296.31c-8.1,0-14.69-6.59-14.69-14.69v-207.65c0-8.1,6.59-14.69,14.69-14.69h296.31c8.1,0,14.69,6.59,14.69,14.69v207.65c0,8.1-6.59,14.69-14.69,14.69ZM453.42,490.82c-2.95,0-5.36,2.4-5.36,5.36v207.65c0,2.95,2.4,5.36,5.36,5.36h296.31c2.95,0,5.36-2.4,5.36-5.36v-207.65c0-2.95-2.4-5.36-5.36-5.36h-296.31Z"/>
          <path class="cls-21" d="M589.51,589.63c-19.47,0-35.31-15.84-35.31-35.31s15.84-35.31,35.31-35.31,35.31,15.84,35.31,35.31-15.84,35.31-35.31,35.31ZM589.51,528.35c-14.32,0-25.97,11.65-25.97,25.97s11.65,25.97,25.97,25.97,25.97-11.65,25.97-25.97-11.65-25.97-25.97-25.97Z"/>
          <path class="cls-21" d="M667.23,717.91c-1.19,0-2.39-.46-3.3-1.37l-91.37-91.37c-12.11-12.11-31.81-12.11-43.92,0l-81.95,81.95c-1.82,1.82-4.78,1.82-6.6,0-1.82-1.82-1.82-4.78,0-6.6l81.95-81.95c15.74-15.75,41.37-15.75,57.11,0l91.37,91.37c1.82,1.82,1.82,4.78,0,6.6-.91.91-2.11,1.37-3.3,1.37Z"/>
          <path class="cls-21" d="M612.18,662.86c-1.19,0-2.39-.46-3.3-1.37-1.82-1.82-1.82-4.78,0-6.6l67.68-67.68c15.75-15.75,41.37-15.74,57.11,0l28.66,28.66c1.82,1.82,1.82,4.78,0,6.6-1.82,1.82-4.78,1.82-6.6,0l-28.66-28.66c-12.11-12.11-31.81-12.11-43.92,0l-67.68,67.68c-.91.91-2.11,1.37-3.3,1.37Z"/>
        </g>
      </g>
    </g>
  </g>
</svg>